<?xml version="1.0" encoding="UTF-8"?><svg id="_Слой_1" xmlns="http://www.w3.org/2000/svg" viewBox="0 0 720.59 263.83"><defs><style>.cls-1{fill:#2c2926;}.cls-2{fill:#e07e0a;}</style></defs><path class="cls-2" d="M131.91,0C59.06,0,0,59.06,0,131.91s59.06,131.91,131.91,131.91,131.91-59.06,131.91-131.91S204.77,0,131.91,0Zm0,234.81c-56.74,0-102.89-46.16-102.89-102.89S75.18,29.02,131.91,29.02s102.89,46.16,102.89,102.89-46.16,102.89-102.89,102.89Z"/><path class="cls-2" d="M89.66,62.02c-2.36-2.34-6.37-.67-6.37,2.65v30.97c0,.99,.4,1.95,1.1,2.65l65.49,65.17c2.36,2.35,6.38,.68,6.38-2.65v-31.1c0-1-.4-1.95-1.1-2.65L89.66,62.02Z"/><path class="cls-1" d="M145.39,62.09c-2.35-2.36-6.39-.69-6.39,2.64v30.66c0,.99,.39,1.94,1.1,2.64l25.49,25.49c.7,.7,1.09,1.65,1.09,2.64v64.48c0,2.07,1.67,3.74,3.74,3.74h20.2c2.07,0,3.74-1.67,3.74-3.74V112.71c0-.99-.39-1.94-1.09-2.64l-47.89-47.97Z"/><path class="cls-1" d="M89.67,118.21c-2.36-2.36-6.38-.69-6.38,2.64v69.81c0,2.07,1.67,3.74,3.74,3.74h20.29c2.07,0,3.74-1.67,3.74-3.74v-49.51c0-.99-.39-1.94-1.1-2.64l-20.29-20.29Z"/><path class="cls-1" d="M719.48,164.48l-15.34-15.34c-1.61-1.61-4.24-1.39-5.62,.41-7.39,9.6-19.01,15.81-32.05,15.81-7.7,0-14.91-2.16-21.03-5.94-2.93-1.77-5.59-3.9-7.94-6.36-7.07-7.26-11.42-17.18-11.42-28.1,0-18.47,12.43-34.06,29.36-38.84,3.51-1.03,7.2-1.56,11.03-1.56,9.75,0,18.66,3.45,25.63,9.18,1.47,1.21,3.62,1.09,4.97-.26l6.38-6.38,.16-.16,8.75-8.75c1.55-1.55,1.42-4.07-.22-5.51-12.81-11.22-29.8-17.77-48.35-17.08-36.03,1.34-65.48,30.9-66.71,66.93-.68,19.93,7.01,38.02,19.88,51.05,2.35,2.43,4.88,4.67,7.6,6.7,11.63,8.86,26.15,14.09,41.9,14.09,21.41,0,40.57-9.7,53.3-24.93,1.22-1.46,1.06-3.63-.28-4.98Z"/><path class="cls-1" d="M412.8,55.56h-18.09c-.99,0-1.94,.39-2.64,1.1l-3.31,3.31-24.77,24.74c-1.46,1.46-3.83,1.46-5.29,0l-25.48-25.51-2.55-2.55c-.7-.7-1.65-1.1-2.64-1.1h-18.83c-2.07,0-3.74,1.67-3.74,3.74V190.67c0,2.07,1.67,3.74,3.74,3.74h20.28c2.07,0,3.74-1.67,3.74-3.74V107.52c0-3.33,4.02-5,6.38-2.65l2.12,2.11,17.01,17.01c1.46,1.46,3.83,1.46,5.29,0l18.36-18.36c2.36-2.36,6.38-.69,6.38,2.64v82.4c0,2.07,1.67,3.74,3.74,3.74h20.3c2.07,0,3.74-1.67,3.74-3.74V59.3c0-2.07-1.67-3.74-3.74-3.74Z"/><path class="cls-1" d="M565.55,55.55h-103.62c-2.07,0-3.74,1.67-3.74,3.74V190.67c0,2.07,1.67,3.74,3.74,3.74h20.3c2.07,0,3.74-1.67,3.74-3.74V87.05c0-2.07,1.67-3.74,3.74-3.74h48.06c2.07,0,3.74,1.67,3.74,3.74v103.62c0,2.07,1.67,3.74,3.74,3.74h20.3c2.07,0,3.74-1.67,3.74-3.74V59.29c0-2.07-1.67-3.74-3.74-3.74Z"/></svg>